<?xml version="1.0" encoding="UTF-8" standalone="no"?>
<!DOCTYPE svg PUBLIC "-//W3C//DTD SVG 1.1//EN" "http://www.w3.org/Graphics/SVG/1.1/DTD/svg11.dtd">
<svg version="1.1" xmlns="http://www.w3.org/2000/svg" xmlns:xlink="http://www.w3.org/1999/xlink" preserveAspectRatio="xMidYMid meet" viewBox="0 0 18 18" width="18" height="18"><defs><path d="M12.7 3.86C11.49 3.86 10.5 4.84 10.5 6.06C10.5 7.05 11.17 7.89 12.08 8.16C12.06 8.6 11.96 8.94 11.78 9.17C11.36 9.7 10.43 9.79 9.44 9.88C8.67 9.95 7.87 10.02 7.22 10.34C7.22 9.94 7.22 6.79 7.22 6.39C8.11 6.11 8.75 5.28 8.75 4.3C8.75 3.09 7.77 2.11 6.56 2.11C5.35 2.11 4.37 3.09 4.37 4.3C4.37 5.28 5.01 6.11 5.9 6.39C5.9 6.94 5.9 11.31 5.9 11.85C5.01 12.14 4.37 12.97 4.37 13.95C4.37 15.16 5.35 16.14 6.56 16.14C7.77 16.14 8.75 15.16 8.75 13.95C8.75 13.02 8.17 12.22 7.35 11.9C7.43 11.76 7.56 11.64 7.76 11.54C8.2 11.31 8.86 11.25 9.57 11.19C10.72 11.08 12.03 10.96 12.81 10C13.19 9.52 13.38 8.91 13.4 8.14C14.26 7.84 14.89 7.02 14.89 6.06C14.89 4.84 13.91 3.86 12.7 3.86ZM7 4.3C7 4.54 6.8 4.74 6.56 4.74C6.32 4.74 6.12 4.54 6.12 4.3C6.12 4.06 6.32 3.86 6.56 3.86C6.8 3.86 7 4.06 7 4.3ZM6.12 13.95C6.12 13.71 6.32 13.51 6.56 13.51C6.8 13.51 7 13.71 7 13.95C7 14.19 6.8 14.39 6.56 14.39C6.32 14.39 6.12 14.19 6.12 13.95ZM13.13 6.06C13.13 6.3 12.94 6.49 12.7 6.49C12.46 6.49 12.26 6.3 12.26 6.06C12.26 5.81 12.46 5.62 12.7 5.62C12.94 5.62 13.13 5.81 13.13 6.06Z" id="bFiVMPmi"></path><path d="M7.73 4.3C7.73 4.89 7.22 5.38 6.6 5.38C5.98 5.38 5.47 4.89 5.47 4.3C5.47 3.71 5.98 3.23 6.6 3.23C7.22 3.23 7.73 3.71 7.73 4.3Z" id="c20038FjKg"></path><path d="M13.9 6.12C13.9 6.71 13.4 7.2 12.77 7.2C12.15 7.2 11.64 6.71 11.64 6.12C11.64 5.53 12.15 5.05 12.77 5.05C13.4 5.05 13.9 5.53 13.9 6.12Z" id="a4iML0FUHI"></path><path d="M7.73 13.84C7.73 14.43 7.22 14.91 6.6 14.91C5.98 14.91 5.47 14.43 5.47 13.84C5.47 13.25 5.98 12.76 6.6 12.76C7.22 12.76 7.73 13.25 7.73 13.84Z" id="a1FoTVgczu"></path></defs><g><g><g><use xlink:href="#bFiVMPmi" opacity="1" fill="#000000" fill-opacity="1"></use><g><use xlink:href="#bFiVMPmi" opacity="1" fill-opacity="0" stroke="#000000" stroke-width="1" stroke-opacity="0"></use></g></g><g><use xlink:href="#c20038FjKg" opacity="1" fill="#000000" fill-opacity="1"></use></g><g><use xlink:href="#a4iML0FUHI" opacity="1" fill="#000000" fill-opacity="1"></use></g><g><use xlink:href="#a1FoTVgczu" opacity="1" fill="#000000" fill-opacity="1"></use></g></g></g></svg>